<svg width="21" height="27" viewBox="0 0 21 27" fill="none" xmlns="http://www.w3.org/2000/svg">
<path d="M19.75 2.52675V17.0176C19.75 18.4395 19.4096 19.8083 18.5824 20.8806C17.9119 21.7498 16.9809 22.798 15.811 23.7422C14.5191 24.7848 13.1576 25.48 12.1157 25.9147C11.5957 26.1316 11.158 26.2825 10.8522 26.3787C10.7134 26.4224 10.602 26.4548 10.5225 26.4769C10.4568 26.4525 10.3686 26.4188 10.2599 26.3755C9.99625 26.2703 9.61289 26.1082 9.14135 25.8829C8.19776 25.432 6.90417 24.7295 5.51105 23.7256C4.28661 22.8434 3.29102 21.8158 2.56191 20.9436C1.63625 19.8363 1.25 18.3788 1.25 16.8636V2.52675C1.25 2.09944 1.4581 1.77724 1.77102 1.65599C2.91725 1.21183 5.53016 0.5 10.5 0.5C15.4698 0.5 18.0828 1.21183 19.229 1.65599C19.5419 1.77724 19.75 2.09944 19.75 2.52675Z" fill="url(#paint0_radial)" stroke="white"/>
<defs>
<radialGradient id="paint0_radial" cx="0" cy="0" r="1" gradientUnits="userSpaceOnUse" gradientTransform="translate(10.5 7.125) rotate(90) scale(19.875 14.3542)">
<stop stop-color="#FF9466"/>
<stop offset="1" stop-color="#FF4D00"/>
</radialGradient>
</defs>
</svg>
