<svg width="20" height="20" viewBox="0 0 20 20" fill="none" xmlns="http://www.w3.org/2000/svg">
<rect opacity="0.2" width="20" height="20" rx="3.42105" fill="white"/>
<path d="M10.5273 14H6.98242V5.54492H10.4922C11.2617 5.54492 11.875 5.73633 12.332 6.11914C12.7891 6.50195 13.0176 7.01367 13.0176 7.6543C13.0176 8.10742 12.8691 8.50977 12.5723 8.86133C12.2754 9.21289 11.9102 9.42383 11.4766 9.49414V9.54102C12.0547 9.5957 12.5234 9.8125 12.8828 10.1914C13.2461 10.5703 13.4277 11.0391 13.4277 11.5977C13.4277 12.3438 13.1699 12.9316 12.6543 13.3613C12.1387 13.7871 11.4297 14 10.5273 14ZM8.49414 6.72266V9.10742H9.87695C10.4043 9.10742 10.8105 9.00195 11.0957 8.79102C11.3809 8.57617 11.5234 8.27148 11.5234 7.87695C11.5234 7.50977 11.4004 7.22656 11.1543 7.02734C10.9121 6.82422 10.5645 6.72266 10.1113 6.72266H8.49414ZM8.49414 12.8223H10.1816C10.7363 12.8223 11.1582 12.709 11.4473 12.4824C11.7402 12.2559 11.8867 11.9258 11.8867 11.4922C11.8867 11.0625 11.7363 10.7363 11.4355 10.5137C11.1387 10.291 10.6992 10.1797 10.1172 10.1797H8.49414V12.8223Z" fill="#008C62"/>
</svg>
